<?xml version="1.0" ?><!DOCTYPE svg  PUBLIC '-//W3C//DTD SVG 1.1//EN'  'http://www.w3.org/Graphics/SVG/1.1/DTD/svg11.dtd'><svg enable-background="new 0 0 128 128" height="128px" id="Layer_1" version="1.1" viewBox="0 0 128 128" width="128px" xml:space="preserve" xmlns="http://www.w3.org/2000/svg" xmlns:xlink="http://www.w3.org/1999/xlink"><g id="real_x5F_earth"><circle cx="64.072" cy="63.499" fill="#2F71B1" r="53.5"/><path d="M64.072,109.999c-28.37,0-51.569-22.086-53.374-50c-0.075,1.158-0.126,2.323-0.126,3.5   c0,29.547,23.953,53.5,53.5,53.5s53.5-23.953,53.5-53.5c0-1.177-0.052-2.342-0.126-3.5   C115.641,87.913,92.442,109.999,64.072,109.999z" opacity="0.1"/><path d="M92.416,18.13l-2.562-0.951l-4.565,1.143L82,20.742v1.275l-4.386,2.671l0.665,3.665   c-0.108-0.261-0.217-0.55-0.331-0.929L77.521,26H73v2.984l-2.687,0.868l0.856,5.29l-1.019,0.175l1.258,1.295l0.027,0.165   l0.09-0.045l1.562,1.608L70,39.948V47h1.826l0.039,0.05c-1.748,1.986-3.457,3.959-5.117,6.024l-0.176,0.218l-2.84,6.733   l0.837,0.947l-1.581,2.383l2.582,6.144l6.728,7.617l2.552-2.193l1.042,1.184l3.032-2.293L79.172,74h2.416l0.392,0.532l-0.997,3.434   l2.138,2.517l-0.104,3.599l1.215,2.404l-0.815,1.777l-0.084,0.359C83.229,90.315,83,92.065,83,93.831v0.352l0.245,0.331   c0.479,1.321,1.041,2.687,1.464,4.007c0.286,0.895,0.572,1.79,0.876,2.688L86,104.587V108h4.5l2.246-2h2.728l5.488-5.576   l-0.454-1.127l3.143-2.603l-1.938-2.132l0.617-0.509l2.596-1.581l1.305-2.452L105,86.977v-5.546l1.879-3.287l2.361-2.637   l2.76-6.688v-3.694l1.726-1.249L116,61.038v-1.18l1.323-1.464C115.714,41.404,106.16,26.736,92.416,18.13z M83.133,44.629   l-1.626-0.421l-2.58,0.309l0.172-0.42l1.807-1.118l0.248-0.556l0.929-0.208l1.104,1.253l0.415,0.208L83.133,44.629z M88.104,47.334   l-0.399,0.458l-1.204-1.211l1.673-0.473l0.949,1.074L88.104,47.334z M92.596,47.341l0.118-0.867   c0.166,0.237,0.826,1.158,0.826,1.158L92.596,47.341z" opacity="0.1"/><path d="M54.864,10.805l-3.132,0.862l-0.114-0.195c-23.538,5.615-41.045,26.77-41.045,52.027   c0,0.344,0.019,0.683,0.026,1.025l4.643,2.751l3.915,1.057l1.598,2.009l3.725,2.712l0.882-0.119l-0.843,2.175l-1.745,2.56   l0.537,1.271l-1.062,3.571l4.239,7.74l3.759,3.313l1.104,1.561l-0.197,4.638l1.145,2.588l-0.822,3.561   c3.381,2.602,7.08,4.807,11.031,6.55l0.785-0.609l-0.465-1.315l1.041-1.032l0.436-1.151l2.632-0.919l2.693-6.71l-0.501-1.133   l0.352-0.514l3.279-0.745l2.249-5.087l-0.389-4.399l2.318-3.281l0.633-5.372l-1.263-0.626c-3.142-1.558-6.316-3.188-9.396-4.772   l-1.766-3.497l-2.925-0.661l-1.8-4.838l-4.848,0.548L31.493,63.3l-4.508,4.04c-0.228-0.047-0.451-0.096-0.654-0.152L26,66.057   v-4.363l-2.488,0.13c0.005-0.1,0.011-0.2,0.016-0.3c0.044-0.812,0.094-1.734,0.173-2.12L24.197,57h-4.896l-1.749,2.375   l-0.063,0.033l-0.168-0.094l-0.099-1.231l0.252-1.695L19.342,55h3.292l0.304-1.057l0.546,0.12l4.917,6.062l0.77-8.719l3.62-3.02   l1.296-3.146l2.623-1.059l1.391-1.968l3.562-0.08l2.859-3.352l0.868,4.577l4.982-7.516l-1.873-1.41l0.563-2.194l-2.328-2.4   l-0.101-0.036l0.102-0.351L45.54,27H46v-1.082l0.61,0.414l3.49-3.126l3.345,6.919l3.869-2.274l1.888-3.023   c1.978-0.633,3.899-1.351,5.87-2.18l-0.392,2.632l3.614,2.33l5.453-3.605l-3.818-4.327l-1.182,0.671l3.143-8.04l-5.755-2.256   c-0.685-0.026-1.37-0.052-2.062-0.052C60.93,9.999,57.857,10.285,54.864,10.805z M34.436,29.048l-1.339,0.553l-2.583-1.078   l3.654-2.151L34.568,26H35.8l-1.442,2.521L34.436,29.048z M50.829,20.767l-3.135-1.279l-1.166-2.369l-1.037-0.123l1.206-0.273   l0.208-0.101c0.046-0.022,0.093-0.04,0.139-0.062l4.881,3.217L50.829,20.767z" opacity="0.1"/><path d="M103.416,91.05l0.609-1.146L103,87.365c0-2.155,0-4.31,0-6.466l2.248-3.932l2.275-2.539L110,68.421v-1.618   c-1,0.153-2.219,0.292-3.409,0.377l2.549-2.456l3.193-2.311L114,60.335v-2.309c0-0.77-0.596-1.541-1.008-2.311l-1.525,1.848   l-1.426-1.385L108,54.788v-3l2.403,2.424l2.476-0.345c1.069,0.971,2.187,1.9,3.125,3.005l1.201-1.329   c-1.979-13.317-8.837-25.035-18.706-33.283l-0.393,0.65l-2.039,2.586L93.413,23h2.654l1.207-1.641   c-0.014-0.011-0.027-0.064-0.041-0.074l-4.841-1.03l-2.654-0.984l-3.582,0.896L84,21.754v1.387l-4.172,2.541l0.67,3.695   l2.175-1.615l1.389,1.615l1.613,0.924l1.014-2.769l-0.619-1.619l0.612-0.995L88.92,23h1.02L88,24.989v2.081   c1-0.255,2.358-0.343,3.317-0.462l-2.421,1.847l-0.09,1.157l-2.903,2.539L83,31.459v-1.848l-1.531,1.349L81.983,33h-2.249   l-1.223,1.656l-1.53,1.518l-2.753,0.472l1.629,1.678L76.269,40h-2.04L72,41.161V45h0.798l1.124,1.43l2.55-1.189l1.02-2.502   l1.837-1.137l0.406-0.911l3.066-0.686l1.629,1.851l1.84,0.923l-1.02,2.079l1.632-0.46l0.817-2.083L85.655,40h0.82l2.04,1.617   l0.406,2.316l1.837,2.079l0.409-3.005l1.023-0.461c1.009,1.048,1.799,2.287,2.649,3.466l3.063,0.23l1.84,1.154l-0.817,1.069   L97.087,50h-2.654l-3.471-1.069l-1.834,0.273L87.8,50.725l-3.776-3.798l-2.654-0.688l-3.877,0.463l-3.471,0.925   c-1.947,2.207-3.872,4.407-5.715,6.699l-2.243,5.317l1.02,1.155l-1.837,2.769l2.04,4.853c1.736,1.963,3.471,3.926,5.204,5.891   l2.553-2.195l1.121,1.274l2.756-2.082L79.84,72h2.758l1.579,2.14l-0.971,3.349l1.941,2.281l-0.104,3.855l1.431,2.797l-1.023,2.32   c-0.102,1.7-0.203,3.389-0.203,5.089c0.836,2.303,1.505,4.609,2.295,6.929L88,104.464V106h1.738l2.246-2h2.651l3.982-4.045   l-0.51-1.266l2.654-2.199l-1.941-2.136l2.347-1.934L103.416,91.05z M98.513,53.636l0.614-0.691l2.347,2.654l2.756,5.89l1.632,1.848   l-0.817,2.078l1.566,1.776c-0.717,0.049-1.438,0.078-2.174,0.078c-1.3-2.731-2.279-5.462-3.269-8.319l-1.733-1.963L98.513,53.636z" fill="#EDEDED"/><polygon fill="#EDEDED" points="69.299,13.439 69.299,13.439 69.299,13.439  "/><polygon fill="#EDEDED" points="74.811,32.846 73.994,30.765 72.562,31.228 72.974,33.767  "/><path d="M76,32.38l-0.596,2.775l2.152-0.463l1.585-1.615l-1.452-1.384C77.209,30.415,76.634,30,76.034,28H75v1.378   l1,0.924V32.38z" fill="#EDEDED"/><polygon fill="#EDEDED" points="67.054,22.915 67.054,22.915 66.848,24.297 68.279,25.22 70.725,23.603 69.503,22.216    67.868,23.144  "/><path d="M69.299,13.439l-5.308-2.08l-6.12,0.692l-7.554,2.078l-1.22,1.387L54,18.75v1.848l-2.046,1.848l2.347,4.855   l1.577-0.927l2.019-3.233c3.153-0.975,5.967-2.08,8.965-3.466L69.299,13.439z" fill="#EDEDED"/><path d="M31.539,21.754c0,0-1.048,0.205-1.712,0.346C18.596,31.4,11.21,45.179,10.412,60.701   c0.562,0.973,1.329,2.176,1.329,2.176l4.286,2.539l4.286,1.157l1.839,2.311l2.856,2.078l1.701-0.23L28,71.283v0.373l-1.7,4.389   l-1.26,1.848l0.391,0.927l-1.029,3.46l3.67,6.702l3.671,3.235l1.633,2.309l-0.206,4.853l1.225,2.769l-1.224,5.306   c2.242,1.579,4.606,2.993,7.082,4.22c0.368-0.281,0.672-0.516,0.672-0.516l-0.407-1.152l1.632-1.618l0.613-1.618l2.654-0.927   l2.04-5.084l-0.612-1.382l1.426-2.078l3.063-0.696l1.634-3.696l-0.409-4.617l2.449-3.466l0.409-3.466   c-3.351-1.662-6.674-3.373-10-5.083l-1.634-3.235l-3.061-0.692l-1.633-4.387l-4.082,0.461l-3.401-2.539L28,69.115v0.51   c-1-0.321-2.336-0.365-3.326-0.973L24,66.343v-2.542l-2.66,0.14C21.545,62.323,21.537,60,21.743,59h-1.43l-1.427,1.938l-1.43,0.736   l-2.042-1.129l-0.204-2.531l0.409-2.739L18.681,53h2.449l0.407-1.415l3.061,0.677l2.246,2.768l0.409-4.627l3.878-3.235l1.429-3.467   l2.857-1.155l1.633-2.309l3.673-0.083L42.561,38c-1.837,0-3.674,0-5.512,0l3.47-2h2.447l3.471-1.58l0.409-1.593l-1.226-1.263   l-1.429-0.516l0.409-1.411l-1.02-2.092l-2.45,0.915l0.409-1.85l-2.857-1.62l-2.244,3.924l0.203,1.387l-2.244,0.927l-1.43,3.002   l-0.612-2.772l-3.878-1.618l-0.613-2.078l5.103-3.005l2.246-2.078l0.204-2.541l-1.224-0.694l-0.714-0.101   c-0.457,0.317-0.912,0.636-1.359,0.966L31.539,21.754z" fill="#EDEDED"/><polygon fill="#EDEDED" points="42.967,25 44,25 44,23.602 42.261,22.678 40.777,23.723  "/><path d="M34.6,24h2.042l1.021-2.047c0.88-0.622,1.756-1.117,2.653-1.717l2.042,0.76   c1.36,0.924,2.72,1.881,4.082,2.804l2.043-1.83l-2.247-0.916l-1.021-2.076l-3.877-0.46l-0.204-1.155l-1.837,0.464l-0.815,1.617   l-1.021-2.08l-0.407,0.924l0.204,2.31l-1.633,1.124L34.6,24z" fill="#EDEDED"/><path d="M45.622,13.439l-1.664,0.241c-1.053,0.426-2.096,0.873-3.115,1.362l-0.527,0.706l2.651,0.461l1.021-0.923   l2.042-0.462c1.398-0.68,2.802-1.138,4.286-1.618l-0.814-1.386l-0.217,0.031c-1.024,0.293-2.037,0.611-3.035,0.962L45.622,13.439z" fill="#EDEDED"/><polygon fill="#EDEDED" points="46.439,38.157 47.664,36.309 45.826,34.924  "/><path d="M117.903,120.944c-0.992,0-1.983-0.378-2.74-1.135l-13.171-13.17c-1.513-1.513,3.966-6.992,5.48-5.48   l13.171,13.17c1.513,1.513,1.513,3.966,0,5.48C119.887,120.566,118.895,120.944,117.903,120.944z" fill="#AD5D31"/><path d="M107.473,101.16c-1.513-1.513-6.993,3.967-5.48,5.48l2.438,2.438c2.121-1.505,3.975-3.359,5.48-5.48   L107.473,101.16z" opacity="0.1"/><circle cx="91.172" cy="90.339" fill="#253B4B" opacity="0.5" r="16.542"/><path d="M91.172,68.822c-11.883,0-21.517,9.633-21.517,21.517s9.633,21.517,21.517,21.517   c11.883,0,21.517-9.633,21.517-21.517S103.056,68.822,91.172,68.822z M91.172,106.881c-9.136,0-16.542-7.406-16.542-16.542   c0-9.136,7.406-16.542,16.542-16.542c9.136,0,16.542,7.406,16.542,16.542C107.715,99.475,100.308,106.881,91.172,106.881z" fill="#F2BA34"/><path d="M76.083,91.792c0-9.136,7.406-16.542,16.542-16.542c4.198,0,8.029,1.567,10.946,4.144   c-3.031-3.431-7.461-5.597-12.398-5.597c-9.136,0-16.542,7.406-16.542,16.542c0,4.938,2.166,9.367,5.597,12.398   C77.65,99.82,76.083,95.99,76.083,91.792z" opacity="0.1"/><path d="M119.331,113.017c-1.626,2.016-3.463,3.854-5.48,5.48l1.312,1.312c0.757,0.756,1.748,1.135,2.74,1.135   s1.983-0.378,2.74-1.135c1.513-1.513,1.513-3.967,0-5.48L119.331,113.017z" opacity="0.1"/></g></svg>